<?xml version="1.0" encoding="UTF-8"?>
<svg id="Calque_1" data-name="Calque 1" xmlns="http://www.w3.org/2000/svg" viewBox="0 0 51 51">
  <defs>
    <style>
      .cls-1 {
        stroke: #fff;
      }

      .cls-1, .cls-2, .cls-3 {
        stroke-miterlimit: 10;
      }

      .cls-1, .cls-3 {
        fill: none;
      }

      .cls-2 {
        fill: #adc1de;
      }

      .cls-2, .cls-3 {
        stroke: #adc1de;
      }

      .cls-3 {
        stroke-width: 2px;
      }
    </style>
  </defs>
  <rect class="cls-1" x=".5" y=".5" width="50" height="50" rx="10" ry="10"/>
  <g>
    <path class="cls-2" d="M37.34,18.56h-5.2c.02,.21,.03,.42,.03,.63h-13.34c0-.21,.01-.42,.03-.63h-5.2c-1.63,0-2.96,1.33-2.96,2.96v11.84c0,3.27,2.65,5.92,5.92,5.92h17.76c3.27,0,5.92-2.65,5.92-5.92v-11.84c0-1.63-1.33-2.96-2.96-2.96Z"/>
    <path class="cls-3" d="M25.5,11.72c-3.49,0-6.36,3.01-6.64,6.83h13.28c-.29-3.83-3.15-6.83-6.64-6.83Z"/>
    <path class="cls-2" d="M32.17,19.19c0-.21-.01-.42-.03-.63h-13.28c-.02,.21-.03,.42-.03,.63h13.34Z"/>
  </g>
</svg>